# xmcd
#
# Track frame offsets:
#	200
#	15570
#	27195
#	47830
#	61625
#	79722
#	95387
#	113005
#	126055
#	146492
#	162035
#	174432
#
# Disc length: 2540 seconds
#
# Revision: 5
# Processed by: cddbd v1.5.2PL0 Copyright (c) Steve Scherf et al.
# Submitted via: EZCDAudioConverter 7.1.5.1
#
DISCID=8709ea0c
DTITLE=Various Artist - Thanks Again - A Country Tribute to Parents
DYEAR=1993
DGENRE=Country
TTITLE0=Paul Overstreet - Seein' My Father in Me
TTITLE1=Jeff and Sheri Easter - Home Folks
TTITLE2=Heirloom - Prayer Warrior
TTITLE3=Ricky Skaggs - You Don't Count the Cost
TTITLE4=Jeff and Sheri Easter - Mama's Bible
TTITLE5=Steve and Annie Chapman - Between the Two of Them
TTITLE6=Dallas Holm and His Family - Train Up Your Children
TTITLE7=Steve and Annie Chapman - Love was Spoken
TTITLE8=Paul Overstreet - Heroes
TTITLE9=Kelly Nelon Thompson, Her Husband and Daughter - Learning to Pray
TTITLE10=Jeff and Sheri Easter - Picture Perfect Love
TTITLE11=Ricky Skaggs - Thanks Again
EXTD=
EXTT0=
EXTT1=
EXTT2=
EXTT3=
EXTT4=
EXTT5=
EXTT6=
EXTT7=
EXTT8=
EXTT9=
EXTT10=
EXTT11=
PLAYORDER=
